<svg width="40" height="40" viewBox="0 0 40 40" fill="none" xmlns="http://www.w3.org/2000/svg">
<rect width="40" height="40" rx="10.7422" fill="#DEEFFF"/>
<path d="M28.6724 11.9655H10.3276C10.1468 11.9655 10 12.1119 10 12.293V26.7069C10 26.888 10.1468 27.0344 10.3276 27.0344H28.6724C28.8532 27.0344 29 26.888 29 26.7069V12.293C29 12.1119 28.8532 11.9655 28.6724 11.9655ZM28.3449 26.3793H10.6552V12.6206H28.3449V26.3793Z" fill="#1F1F1F"/>
<path d="M15.2411 19.2175C16.2471 19.2175 17.0654 18.3992 17.0654 17.3935C17.0654 16.3872 16.2471 15.5688 15.2411 15.5688C14.2351 15.5688 13.4167 16.3872 13.4167 17.3932C13.4167 18.3992 14.2351 19.2175 15.2411 19.2175ZM15.2411 16.224C15.8858 16.224 16.4102 16.7488 16.4102 17.3932C16.4102 18.0375 15.8858 18.5623 15.2411 18.5623C14.5964 18.5623 14.0719 18.0379 14.0719 17.3935C14.0719 16.7491 14.5964 16.224 15.2411 16.224Z" fill="#1F1F1F"/>
<path d="M12.2931 25.069C12.3697 25.069 12.4471 25.0422 12.5093 24.9875L17.8532 20.2827L21.228 23.6572C21.3561 23.7852 21.5631 23.7852 21.6912 23.6572C21.8193 23.529 21.8193 23.322 21.6912 23.1939L20.1165 21.6192L23.1241 18.3257L26.813 21.7073C26.9464 21.8295 27.1537 21.8204 27.2759 21.687C27.3981 21.5537 27.3893 21.3463 27.2556 21.2242L23.3245 17.6207C23.2604 17.5621 23.1749 17.5329 23.0887 17.5349C23.0019 17.5388 22.92 17.5771 22.8614 17.6413L19.653 21.1554L18.0993 19.6017C17.9767 19.4794 17.7808 19.4732 17.6511 19.5872L12.0766 24.4954C11.9406 24.615 11.9275 24.822 12.0471 24.958C12.1119 25.0317 12.2023 25.069 12.2931 25.069Z" fill="#1F1F1F"/>
</svg>
