<svg width="147" height="42" viewBox="0 0 147 42" fill="none" xmlns="http://www.w3.org/2000/svg">
<rect x="0.707721" y="0.707721" width="40.5846" height="40.5846" rx="8.72855" stroke="url(#paint0_linear_43_3000)" stroke-width="1.41544"/>
<path fill-rule="evenodd" clip-rule="evenodd" d="M31.4963 11.6639L27.5564 18.4869L29.0067 20.9997L25.0639 27.8251L21.126 34.65H27.9829L31.9227 27.8251L35.8632 20.9997L32.8309 14.3456L31.4963 11.6639Z" fill="url(#paint1_linear_43_3000)"/>
<path fill-rule="evenodd" clip-rule="evenodd" d="M21.136 24.584L26.106 15.976L31.0861 7.34999H29.0065H26.9264L21.5334 16.6854L16.1433 26.0241L11.1631 34.65H13.2426H15.3252L21.136 24.584Z" fill="url(#paint2_linear_43_3000)"/>
<path fill-rule="evenodd" clip-rule="evenodd" d="M13.2429 20.9997L17.1833 14.1749L21.126 7.34999H14.2666L10.3268 14.1749L6.38403 20.9997L9.62591 27.6544L10.7528 30.3356L14.6932 23.5131L13.2429 20.9997Z" fill="url(#paint3_linear_43_3000)"/>
<path d="M62.7308 16.7804C63.75 16.7804 64.6055 17.1201 65.2975 17.7995C66.0021 18.4663 66.3544 19.5169 66.3544 20.9512V21.0078V27.5H63.599V26.16C62.8315 27.2169 61.7243 27.7453 60.2774 27.7453C59.4219 27.7453 58.6544 27.4874 57.975 26.9716C57.3081 26.4557 56.9747 25.7385 56.9747 24.8201C56.9747 23.5997 57.3962 22.6749 58.2392 22.0458C59.0821 21.4042 60.1013 21.0833 61.2965 21.0833H63.6178V20.9701C63.6178 19.8629 63.1397 19.3093 62.1835 19.3093C61.6928 19.3093 61.2022 19.3785 60.7115 19.5169C60.2334 19.6553 59.8748 19.7937 59.6357 19.9321L59.2772 20.1397L58.2392 18.1203C58.2895 18.0826 58.3587 18.0385 58.4468 17.9882C58.5348 17.9253 58.7236 17.8184 59.0129 17.6674C59.3149 17.5038 59.6294 17.3654 59.9566 17.2522C60.2837 17.1264 60.6989 17.0194 61.2022 16.9314C61.7054 16.8307 62.215 16.7804 62.7308 16.7804ZM61.4098 22.914C60.3026 22.914 59.749 23.4046 59.749 24.386C59.749 24.7886 59.8811 25.1095 60.1453 25.3485C60.4221 25.575 60.8121 25.6882 61.3154 25.6882C61.9696 25.6882 62.5107 25.4051 62.9384 24.839C63.3788 24.2602 63.599 23.7129 63.599 23.197V22.914H61.4098ZM75.9977 24.4049C75.9977 25.5121 75.6202 26.3488 74.8653 26.9149C74.123 27.4685 73.0787 27.7453 71.7325 27.7453C70.9776 27.7453 70.2415 27.6447 69.5244 27.4434C68.8198 27.2421 68.3039 27.0408 67.9768 26.8394L67.4861 26.5375L68.6185 24.4238C68.7191 24.4867 68.8638 24.5747 69.0526 24.688C69.2413 24.7886 69.6061 24.927 70.1472 25.1032C70.6882 25.2667 71.2166 25.3485 71.7325 25.3485C72.3615 25.3485 72.783 25.2667 72.9969 25.1032C73.2234 24.9396 73.3366 24.7194 73.3366 24.4426C73.3366 24.1658 73.1416 23.9331 72.7516 23.7443C72.3741 23.543 71.9086 23.3606 71.355 23.197C70.814 23.0335 70.2667 22.8448 69.7131 22.6309C69.1721 22.417 68.7066 22.0961 68.3165 21.6684C67.9391 21.2406 67.7503 20.7184 67.7503 20.1019C67.7503 19.0451 68.1467 18.2273 68.9393 17.6485C69.732 17.0698 70.6819 16.7804 71.7891 16.7804C72.4685 16.7804 73.1227 16.8873 73.7518 17.1012C74.3935 17.3025 74.859 17.5101 75.1484 17.724L75.5825 18.026L74.5067 20.0642C74.4186 20.0013 74.2991 19.9258 74.1481 19.8377C73.9972 19.7371 73.6826 19.605 73.2045 19.4414C72.7264 19.2778 72.2546 19.1961 71.7891 19.1961C70.8832 19.1961 70.4302 19.4603 70.4302 19.9887C70.4302 20.2026 70.619 20.3976 70.9964 20.5738C71.3865 20.7373 71.852 20.9009 72.393 21.0644C72.9466 21.228 73.4939 21.4293 74.0349 21.6684C74.5759 21.8948 75.0352 22.2408 75.4126 22.7064C75.8026 23.1719 75.9977 23.7381 75.9977 24.4049ZM78.208 14.1571H80.869V17.0068H83.5866V19.5358H80.869V22.1779C80.869 22.1779 80.869 22.2031 80.869 22.2534C80.869 22.2534 80.869 22.5805 80.869 23.2348C80.869 23.5242 80.8816 23.7758 80.9067 23.9897C80.9319 24.2036 80.9822 24.4175 81.0577 24.6314C81.1332 24.8452 81.2527 25.0088 81.4163 25.122C81.5798 25.2353 81.7874 25.2919 82.0391 25.2919C82.3285 25.2919 82.6053 25.2479 82.8695 25.1598C83.1337 25.0591 83.3224 24.9585 83.4356 24.8578L83.6244 24.7257L84.4925 26.7262C84.4296 26.8017 84.3289 26.8961 84.1905 27.0093C84.0647 27.1225 83.7691 27.2735 83.3035 27.4622C82.8506 27.651 82.3536 27.7453 81.8126 27.7453C81.1709 27.7453 80.6173 27.6384 80.1518 27.4245C79.6863 27.2106 79.3277 26.9464 79.0761 26.6318C78.837 26.3047 78.6483 25.8832 78.5099 25.3674C78.3715 24.839 78.2834 24.3546 78.2457 23.9142C78.2205 23.4613 78.208 22.9077 78.208 22.2534V19.5358H76.4905V17.0068H78.208V14.1571ZM91.4124 16.7804V19.5169C90.2423 19.5169 89.3805 19.8314 88.8269 20.4605C88.2858 21.0896 88.0153 21.8256 88.0153 22.6686V27.5H85.2599V17.0068H88.0153V18.5167C88.3928 17.9756 88.8772 17.5542 89.4685 17.2522C90.0724 16.9376 90.7204 16.7804 91.4124 16.7804ZM96.6793 16.7804C97.6984 16.7804 98.554 17.1201 99.246 17.7995C99.9506 18.4663 100.303 19.5169 100.303 20.9512V21.0078V27.5H97.5474V26.16C96.78 27.2169 95.6728 27.7453 94.2259 27.7453C93.3703 27.7453 92.6028 27.4874 91.9234 26.9716C91.2566 26.4557 90.9232 25.7385 90.9232 24.8201C90.9232 23.5997 91.3447 22.6749 92.1876 22.0458C93.0306 21.4042 94.0497 21.0833 95.245 21.0833H97.5663V20.9701C97.5663 19.8629 97.0882 19.3093 96.132 19.3093C95.6413 19.3093 95.1506 19.3785 94.6599 19.5169C94.1818 19.6553 93.8233 19.7937 93.5842 19.9321L93.2256 20.1397L92.1876 18.1203C92.238 18.0826 92.3072 18.0385 92.3952 17.9882C92.4833 17.9253 92.672 17.8184 92.9614 17.6674C93.2634 17.5038 93.5779 17.3654 93.905 17.2522C94.2322 17.1264 94.6474 17.0194 95.1506 16.9314C95.6539 16.8307 96.1635 16.7804 96.6793 16.7804ZM95.3582 22.914C94.251 22.914 93.6974 23.4046 93.6974 24.386C93.6974 24.7886 93.8296 25.1095 94.0938 25.3485C94.3706 25.575 94.7606 25.6882 95.2639 25.6882C95.9181 25.6882 96.4591 25.4051 96.8869 24.839C97.3273 24.2602 97.5474 23.7129 97.5474 23.197V22.914H95.3582ZM109.097 24.0086L111.456 25.1975C110.978 25.9902 110.336 26.613 109.531 27.0659C108.726 27.5189 107.826 27.7453 106.832 27.7453C105.297 27.7453 104.014 27.2295 102.982 26.1978C101.95 25.1661 101.435 23.8513 101.435 22.2534C101.435 20.6555 101.95 19.347 102.982 18.3279C104.014 17.2962 105.297 16.7804 106.832 16.7804C107.814 16.7804 108.707 17.0068 109.512 17.4598C110.317 17.9001 110.959 18.5104 111.437 19.2904L109.097 20.5171C108.568 19.6616 107.814 19.2338 106.832 19.2338C106.052 19.2338 105.398 19.5169 104.869 20.0831C104.354 20.6492 104.096 21.3727 104.096 22.2534C104.096 23.1341 104.354 23.8639 104.869 24.4426C105.398 25.0088 106.052 25.2919 106.832 25.2919C107.814 25.2919 108.568 24.8641 109.097 24.0086ZM113.838 18.3279C114.869 17.2962 116.153 16.7804 117.688 16.7804C119.223 16.7804 120.506 17.2962 121.538 18.3279C122.569 19.347 123.085 20.6555 123.085 22.2534C123.085 23.8513 122.569 25.1661 121.538 26.1978C120.506 27.2295 119.223 27.7453 117.688 27.7453C116.153 27.7453 114.869 27.2295 113.838 26.1978C112.806 25.1661 112.29 23.8513 112.29 22.2534C112.29 20.6555 112.806 19.347 113.838 18.3279ZM119.631 20.0831C119.116 19.5169 118.468 19.2338 117.688 19.2338C116.907 19.2338 116.253 19.5169 115.725 20.0831C115.209 20.6492 114.951 21.3727 114.951 22.2534C114.951 23.1341 115.209 23.8639 115.725 24.4426C116.253 25.0088 116.907 25.2919 117.688 25.2919C118.468 25.2919 119.116 25.0088 119.631 24.4426C120.147 23.8639 120.405 23.1341 120.405 22.2534C120.405 21.3727 120.147 20.6492 119.631 20.0831ZM132.016 13.2512H134.772V27.5H132.016V26.5941C131.249 27.3616 130.242 27.7453 128.997 27.7453C127.487 27.7453 126.26 27.2358 125.316 26.2167C124.373 25.1975 123.901 23.8765 123.901 22.2534C123.901 20.6304 124.373 19.3156 125.316 18.3091C126.26 17.2899 127.487 16.7804 128.997 16.7804C130.255 16.7804 131.261 17.1578 132.016 17.9127V13.2512ZM131.242 20.0831C130.727 19.5169 130.079 19.2338 129.299 19.2338C128.519 19.2338 127.871 19.5169 127.355 20.0831C126.839 20.6492 126.581 21.3727 126.581 22.2534C126.581 23.1341 126.839 23.8576 127.355 24.4238C127.871 24.9899 128.519 25.273 129.299 25.273C130.079 25.273 130.727 24.9899 131.242 24.4238C131.758 23.8576 132.016 23.1341 132.016 22.2534C132.016 21.3727 131.758 20.6492 131.242 20.0831ZM141.316 16.7804C142.687 16.7804 143.839 17.2459 144.77 18.1769C145.713 19.0954 146.185 20.4165 146.185 22.1402C146.185 22.5176 146.173 22.807 146.147 23.0083H138.636C138.762 23.7003 139.064 24.2539 139.542 24.6691C140.033 25.0717 140.611 25.273 141.278 25.273C142.272 25.273 143.027 24.8515 143.543 24.0086L145.902 25.1975C145.424 25.9902 144.782 26.613 143.977 27.0659C143.172 27.5189 142.272 27.7453 141.278 27.7453C139.743 27.7453 138.46 27.2295 137.428 26.1978C136.397 25.1661 135.881 23.8513 135.881 22.2534C135.881 20.6555 136.403 19.347 137.447 18.3279C138.491 17.2962 139.781 16.7804 141.316 16.7804ZM141.278 19.2338C140.737 19.2338 140.247 19.3848 139.806 19.6867C139.366 19.9761 139.039 20.3787 138.825 20.8946H143.43C143.43 20.5046 143.26 20.1334 142.92 19.7811C142.593 19.4162 142.046 19.2338 141.278 19.2338Z" fill="white"/>
<defs>
<linearGradient id="paint0_linear_43_3000" x1="0" y1="21" x2="42" y2="21" gradientUnits="userSpaceOnUse">
<stop stop-color="white"/>
<stop offset="1" stop-color="white"/>
</linearGradient>
<linearGradient id="paint1_linear_43_3000" x1="21.126" y1="23.157" x2="35.8632" y2="23.157" gradientUnits="userSpaceOnUse">
<stop stop-color="white"/>
<stop offset="1" stop-color="white"/>
</linearGradient>
<linearGradient id="paint2_linear_43_3000" x1="11.1631" y1="21" x2="31.0861" y2="21" gradientUnits="userSpaceOnUse">
<stop stop-color="white"/>
<stop offset="1" stop-color="white"/>
</linearGradient>
<linearGradient id="paint3_linear_43_3000" x1="6.38403" y1="18.8428" x2="21.126" y2="18.8428" gradientUnits="userSpaceOnUse">
<stop stop-color="white"/>
<stop offset="1" stop-color="white"/>
</linearGradient>
</defs>
</svg>
